<?xml version="1.0" encoding="UTF-8" standalone="no" ?>
<!DOCTYPE svg PUBLIC "-//W3C//DTD SVG 1.1//EN" "http://www.w3.org/Graphics/SVG/1.1/DTD/svg11.dtd">
<svg xmlns="http://www.w3.org/2000/svg" xmlns:xlink="http://www.w3.org/1999/xlink" version="1.1" width="300" height="158" viewBox="0 0 300 158" xml:space="preserve">
<desc>Created with Fabric.js 3.6.3</desc>
<defs>
</defs>
<g transform="matrix(11.28 0 0 11.28 560 558)"  >
<polygon style="stroke: rgb(0,0,0); stroke-width: 0; stroke-dasharray: none; stroke-linecap: butt; stroke-dashoffset: 0; stroke-linejoin: miter; stroke-miterlimit: 4; fill: rgb(24,41,48); fill-rule: nonzero; opacity: 1;"  points="-50,-50 -50,50 50,50 50,-50 " />
</g>
<g transform="matrix(0.28 0 0 0.28 150.25 79.25)"  >
<g style=""   >
		<g transform="matrix(1 0 0 1 -484.5 169.45)"  >
<path style="stroke: none; stroke-width: 1; stroke-dasharray: none; stroke-linecap: butt; stroke-dashoffset: 0; stroke-linejoin: miter; stroke-miterlimit: 4; fill: rgb(255,255,255); fill-rule: nonzero; opacity: 1;"  transform=" translate(-15.5, -431.45)" d="M 18 411.6 H 0 v 39.7 h 7.1 v -13.6 H 18 c 8.3 0 13 -4.8 13 -13.1 C 31 416.3 26.5 411.6 18 411.6 z M 23.4 426.4 c 0 3.2 -2.2 5.3 -6.2 5.3 H 7.1 V 418 h 10.5 c 3.5 0 5.8 1.8 5.8 5 V 426.4 z" stroke-linecap="round" />
</g>
		<g transform="matrix(1 0 0 1 -444.85 169.45)"  >
<path style="stroke: none; stroke-width: 1; stroke-dasharray: none; stroke-linecap: butt; stroke-dashoffset: 0; stroke-linejoin: miter; stroke-miterlimit: 4; fill: rgb(255,255,255); fill-rule: nonzero; opacity: 1;"  transform=" translate(-55.15, -431.45)" d="M 66.7 433.2 H 65 v -0.4 c 3.7 -1.3 6 -4.8 6 -9.5 c 0 -7.2 -4 -11.7 -11.8 -11.7 H 39.3 v 39.7 h 7.1 v -14.6 h 17.4 v 14.6 H 71 v -13.4 C 71 434.7 69.6 433.2 66.7 433.2 z M 63.4 425.8 c 0 3.1 -2.2 5.1 -6 5.1 h -11 v -13.1 h 11 c 3.7 0 6 1.7 6 5 V 425.8 z" stroke-linecap="round" />
</g>
		<g transform="matrix(1 0 0 1 -404.7 169.4)"  >
<polygon style="stroke: none; stroke-width: 1; stroke-dasharray: none; stroke-linecap: butt; stroke-dashoffset: 0; stroke-linejoin: miter; stroke-miterlimit: 4; fill: rgb(255,255,255); fill-rule: nonzero; opacity: 1;"  points="13.7,-13.6 13.7,-19.8 -13.7,-19.8 -13.7,19.8 13.7,19.8 13.7,13.6 -6.6,13.6 -6.6,2.3 10.9,2.3 10.9,-3.6 -6.6,-3.6 -6.6,-13.6 " />
</g>
		<g transform="matrix(1 0 0 1 -366.5 169.45)"  >
<path style="stroke: none; stroke-width: 1; stroke-dasharray: none; stroke-linecap: butt; stroke-dashoffset: 0; stroke-linejoin: miter; stroke-miterlimit: 4; fill: rgb(255,255,255); fill-rule: nonzero; opacity: 1;"  transform=" translate(-133.5, -431.45)" d="M 151.8 437.5 h -7.5 c -1.1 5 -5.2 8 -10.6 8 c -3.3 0 -6 -1 -8.1 -2.9 c -2 -2 -3 -4.6 -3 -7.7 v -6.5 c 0 -6.7 4.4 -10.9 11.2 -10.9 c 5.9 0 9.6 3.1 10.5 7.9 h 7.5 c -0.4 -4.4 -2.2 -7.8 -5.4 -10.4 c -3.2 -2.6 -7.3 -3.9 -12.3 -3.9 c -5.9 0 -10.6 1.8 -13.9 5.4 c -3.3 3.6 -5 8.7 -5 15 c 0 6.3 1.6 11.3 4.9 14.9 c 3.3 3.6 7.8 5.4 13.6 5.4 c 5 0 9.1 -1.3 12.4 -3.9 C 149.2 445.4 151.2 441.9 151.8 437.5 z" stroke-linecap="round" />
</g>
		<g transform="matrix(1 0 0 1 -335.45 169.45)"  >
<rect style="stroke: none; stroke-width: 1; stroke-dasharray: none; stroke-linecap: butt; stroke-dashoffset: 0; stroke-linejoin: miter; stroke-miterlimit: 4; fill: rgb(255,255,255); fill-rule: nonzero; opacity: 1;"  x="-3.55" y="-19.85" rx="0" ry="0" width="7.1" height="39.7" />
</g>
		<g transform="matrix(1 0 0 1 -306.8 169.3)"  >
<path style="stroke: none; stroke-width: 1; stroke-dasharray: none; stroke-linecap: butt; stroke-dashoffset: 0; stroke-linejoin: miter; stroke-miterlimit: 4; fill: rgb(255,255,255); fill-rule: nonzero; opacity: 1;"  transform=" translate(-193.2, -431.3)" d="M 204.7 448.5 c 2.9 -2.2 4.3 -5.2 4.3 -9.1 c 0 -5.9 -3.4 -9.6 -10.3 -11.1 l -7 -1.4 c -1.5 -0.3 -1.6 -0.4 -3 -0.9 c -0.7 -0.3 -1.3 -0.6 -1.6 -0.9 c -0.7 -0.7 -1.5 -1.8 -1.5 -3.3 c 0 -3.2 2.6 -5.2 7.1 -5.2 s 7.5 2.1 7.7 6 h 7.3 c -0.1 -3.6 -1.5 -6.4 -4.2 -8.5 c -2.7 -2.1 -6.3 -3.2 -10.7 -3.2 c -4.4 0 -8 1.1 -10.7 3.2 c -2.7 2.1 -4 5 -4 8.5 c 0 3.1 1.5 5.8 2.9 7.2 c 0.7 0.7 1.7 1.3 3 1.9 c 1.3 0.6 2.2 1 2.8 1.1 c 0.6 0.2 1.5 0.3 2.7 0.6 l 6.5 1.4 c 1.1 0.2 1.4 0.3 2.7 0.9 c 0.6 0.3 1.1 0.5 1.5 0.9 c 0.7 0.7 1.4 2 1.4 3.5 c 0 3.7 -3 5.9 -7.9 5.9 c -5.4 0 -8.9 -2.6 -9 -7.2 h -7.3 c -0.1 3.8 1.4 6.9 4.2 9.3 c 2.9 2.4 6.9 3.6 11.9 3.6 C 198 451.8 201.9 450.7 204.7 448.5 z" stroke-linecap="round" />
</g>
		<g transform="matrix(1 0 0 1 -277.85 169.45)"  >
<rect style="stroke: none; stroke-width: 1; stroke-dasharray: none; stroke-linecap: butt; stroke-dashoffset: 0; stroke-linejoin: miter; stroke-miterlimit: 4; fill: rgb(255,255,255); fill-rule: nonzero; opacity: 1;"  x="-3.55" y="-19.85" rx="0" ry="0" width="7.1" height="39.7" />
</g>
		<g transform="matrix(1 0 0 1 -246.3 169.45)"  >
<path style="stroke: none; stroke-width: 1; stroke-dasharray: none; stroke-linecap: butt; stroke-dashoffset: 0; stroke-linejoin: miter; stroke-miterlimit: 4; fill: rgb(255,255,255); fill-rule: nonzero; opacity: 1;"  transform=" translate(-253.7, -431.45)" d="M 239.8 416.5 c -3.4 3.6 -5.1 8.6 -5.1 15 c 0 6.3 1.7 11.3 5.1 14.9 c 3.4 3.6 8 5.4 13.9 5.4 c 5.9 0 10.6 -1.8 13.9 -5.4 c 3.4 -3.6 5.1 -8.6 5.1 -14.9 c 0 -6.3 -1.7 -11.3 -5.1 -14.9 c -3.4 -3.6 -8 -5.5 -13.9 -5.5 C 247.9 411.1 243.2 412.9 239.8 416.5 z M 265.2 428.6 v 5.6 c 0 6.9 -4.2 11.3 -11.4 11.3 c -7 0 -11.5 -4.1 -11.5 -11.3 v -5.6 c 0 -6.8 4.2 -11.2 11.5 -11.2 C 260.7 417.4 265.2 421.5 265.2 428.6 z" stroke-linecap="round" />
</g>
		<g transform="matrix(1 0 0 1 -201.35 169.4)"  >
<polygon style="stroke: none; stroke-width: 1; stroke-dasharray: none; stroke-linecap: butt; stroke-dashoffset: 0; stroke-linejoin: miter; stroke-miterlimit: 4; fill: rgb(255,255,255); fill-rule: nonzero; opacity: 1;"  points="16.75,-19.8 9.65,-19.8 9.65,-1.5 10.15,10.1 9.75,10.1 -8.35,-19.8 -16.75,-19.8 -16.75,19.8 -9.75,19.8 -9.75,1.2 -10.05,-10 -9.75,-10 8.35,19.8 16.75,19.8 " />
</g>
		<g transform="matrix(1 0 0 1 -145.05 169.3)"  >
<path style="stroke: none; stroke-width: 1; stroke-dasharray: none; stroke-linecap: butt; stroke-dashoffset: 0; stroke-linejoin: miter; stroke-miterlimit: 4; fill: rgb(255,255,255); fill-rule: nonzero; opacity: 1;"  transform=" translate(-354.95, -431.3)" d="M 360.3 428.3 l -7 -1.4 c -1.5 -0.3 -1.6 -0.4 -3 -0.9 c -0.7 -0.3 -1.3 -0.6 -1.6 -0.9 c -0.7 -0.7 -1.5 -1.8 -1.5 -3.3 c 0 -3.2 2.6 -5.2 7.1 -5.2 s 7.5 2.1 7.7 6 h 7.3 c -0.1 -3.6 -1.5 -6.4 -4.2 -8.5 c -2.7 -2.1 -6.3 -3.2 -10.7 -3.2 s -8 1.1 -10.7 3.2 c -2.7 2.1 -4 5 -4 8.5 c 0 3.1 1.5 5.8 2.9 7.2 c 0.7 0.7 1.7 1.3 3 1.9 c 1.3 0.6 2.2 1 2.8 1.1 c 0.6 0.2 1.5 0.3 2.7 0.6 l 6.5 1.4 c 1.1 0.2 1.4 0.3 2.7 0.9 c 0.6 0.3 1.1 0.5 1.5 0.9 c 0.7 0.7 1.4 2 1.4 3.5 c 0 3.7 -3 5.9 -7.9 5.9 c -5.4 0 -8.9 -2.6 -9 -7.2 h -7.3 c -0.1 3.8 1.4 6.9 4.2 9.3 c 2.9 2.4 6.9 3.6 11.9 3.6 c 4.8 0 8.6 -1.1 11.5 -3.3 c 2.9 -2.2 4.3 -5.2 4.3 -9.1 C 370.6 433.4 367.2 429.7 360.3 428.3 z" stroke-linecap="round" />
</g>
		<g transform="matrix(1 0 0 1 -109.1 169.4)"  >
<polygon style="stroke: none; stroke-width: 1; stroke-dasharray: none; stroke-linecap: butt; stroke-dashoffset: 0; stroke-linejoin: miter; stroke-miterlimit: 4; fill: rgb(255,255,255); fill-rule: nonzero; opacity: 1;"  points="4.8,-10.7 0.2,-2.2 -0.2,-2.2 -4.8,-10.8 -9.9,-19.8 -18.4,-19.8 -3.6,4.3 -3.6,19.8 3.6,19.8 3.6,4.3 18.4,-19.8 9.9,-19.8 " />
</g>
		<g transform="matrix(1 0 0 1 -72.25 169.3)"  >
<path style="stroke: none; stroke-width: 1; stroke-dasharray: none; stroke-linecap: butt; stroke-dashoffset: 0; stroke-linejoin: miter; stroke-miterlimit: 4; fill: rgb(255,255,255); fill-rule: nonzero; opacity: 1;"  transform=" translate(-427.75, -431.3)" d="M 433.1 428.3 l -7 -1.4 c -1.5 -0.3 -1.6 -0.4 -3 -0.9 c -0.7 -0.3 -1.3 -0.6 -1.6 -0.9 c -0.7 -0.7 -1.5 -1.8 -1.5 -3.3 c 0 -3.2 2.6 -5.2 7.1 -5.2 c 4.5 0 7.5 2.1 7.7 6 h 7.3 c -0.1 -3.6 -1.5 -6.4 -4.2 -8.5 c -2.7 -2.1 -6.3 -3.2 -10.7 -3.2 c -4.4 0 -8 1.1 -10.7 3.2 c -2.7 2.1 -4 5 -4 8.5 c 0 3.1 1.5 5.8 2.9 7.2 c 0.7 0.7 1.7 1.3 3 1.9 c 1.3 0.6 2.2 1 2.8 1.1 c 0.6 0.2 1.5 0.3 2.7 0.6 l 6.5 1.4 c 1.1 0.2 1.4 0.3 2.7 0.9 c 0.6 0.3 1.1 0.5 1.5 0.9 c 0.7 0.7 1.4 2 1.4 3.5 c 0 3.7 -3 5.9 -7.9 5.9 c -5.4 0 -8.9 -2.6 -9 -7.2 h -7.3 c -0.1 3.8 1.4 6.9 4.2 9.3 c 2.9 2.4 6.9 3.6 11.9 3.6 c 4.8 0 8.6 -1.1 11.5 -3.3 c 2.9 -2.2 4.3 -5.2 4.3 -9.1 C 443.5 433.4 440.1 429.7 433.1 428.3 z" stroke-linecap="round" />
</g>
		<g transform="matrix(1 0 0 1 -38.05 169.4)"  >
<polygon style="stroke: none; stroke-width: 1; stroke-dasharray: none; stroke-linecap: butt; stroke-dashoffset: 0; stroke-linejoin: miter; stroke-miterlimit: 4; fill: rgb(255,255,255); fill-rule: nonzero; opacity: 1;"  points="-15.05,-13.6 -3.55,-13.6 -3.55,19.8 3.55,19.8 3.55,-13.6 15.05,-13.6 15.05,-19.8 -15.05,-19.8 " />
</g>
		<g transform="matrix(1 0 0 1 -2.85 169.4)"  >
<polygon style="stroke: none; stroke-width: 1; stroke-dasharray: none; stroke-linecap: butt; stroke-dashoffset: 0; stroke-linejoin: miter; stroke-miterlimit: 4; fill: rgb(255,255,255); fill-rule: nonzero; opacity: 1;"  points="-13.65,19.8 13.65,19.8 13.65,13.6 -6.65,13.6 -6.65,2.3 10.95,2.3 10.95,-3.6 -6.65,-3.6 -6.65,-13.6 13.65,-13.6 13.65,-19.8 -13.65,-19.8 " />
</g>
		<g transform="matrix(1 0 0 1 40.8 169.4)"  >
<polygon style="stroke: none; stroke-width: 1; stroke-dasharray: none; stroke-linecap: butt; stroke-dashoffset: 0; stroke-linejoin: miter; stroke-miterlimit: 4; fill: rgb(255,255,255); fill-rule: nonzero; opacity: 1;"  points="0.2,5.1 -0.2,5.1 -11.1,-19.8 -20.1,-19.8 -20.1,19.8 -13.2,19.8 -13.2,1.2 -13.7,-10.2 -13.3,-10.2 0,19.2 13.3,-10.2 13.6,-10.2 13.1,1.1 13.1,19.8 20.1,19.8 20.1,-19.8 11,-19.8 " />
</g>
		<g transform="matrix(1 0 0 1 86.15 169.3)"  >
<path style="stroke: none; stroke-width: 1; stroke-dasharray: none; stroke-linecap: butt; stroke-dashoffset: 0; stroke-linejoin: miter; stroke-miterlimit: 4; fill: rgb(255,255,255); fill-rule: nonzero; opacity: 1;"  transform=" translate(-586.15, -431.3)" d="M 591.5 428.3 l -7 -1.4 c -1.5 -0.3 -1.6 -0.4 -3 -0.9 c -0.7 -0.3 -1.3 -0.6 -1.6 -0.9 c -0.7 -0.7 -1.5 -1.8 -1.5 -3.3 c 0 -3.2 2.6 -5.2 7.1 -5.2 s 7.5 2.1 7.7 6 h 7.3 c -0.1 -3.6 -1.5 -6.4 -4.2 -8.5 c -2.7 -2.1 -6.3 -3.2 -10.7 -3.2 s -8 1.1 -10.7 3.2 c -2.7 2.1 -4 5 -4 8.5 c 0 3.1 1.5 5.8 2.9 7.2 c 0.7 0.7 1.7 1.3 3 1.9 c 1.3 0.6 2.2 1 2.8 1.1 c 0.6 0.2 1.5 0.3 2.7 0.6 l 6.5 1.4 c 1.1 0.2 1.4 0.3 2.7 0.9 c 0.6 0.3 1.1 0.5 1.5 0.9 c 0.7 0.7 1.4 2 1.4 3.5 c 0 3.7 -3 5.9 -7.9 5.9 c -5.4 0 -8.9 -2.6 -9 -7.2 h -7.3 c -0.1 3.8 1.4 6.9 4.2 9.3 c 2.9 2.4 6.9 3.6 11.9 3.6 c 4.8 0 8.6 -1.1 11.5 -3.3 c 2.9 -2.2 4.3 -5.2 4.3 -9.1 C 601.8 433.4 598.4 429.7 591.5 428.3 z" stroke-linecap="round" />
</g>
		<g transform="matrix(1 0 0 1 -486.35 241.65)"  >
<polygon style="stroke: none; stroke-width: 1; stroke-dasharray: none; stroke-linecap: butt; stroke-dashoffset: 0; stroke-linejoin: miter; stroke-miterlimit: 4; fill: rgb(255,255,255); fill-rule: nonzero; opacity: 1;"  points="-13.65,19.85 13.65,19.85 13.65,13.55 -6.55,13.55 -6.55,2.25 10.95,2.25 10.95,-3.65 -6.55,-3.65 -6.55,-13.65 13.65,-13.65 13.65,-19.85 -13.65,-19.85 " />
</g>
		<g transform="matrix(1 0 0 1 -446.05 241.65)"  >
<polygon style="stroke: none; stroke-width: 1; stroke-dasharray: none; stroke-linecap: butt; stroke-dashoffset: 0; stroke-linejoin: miter; stroke-miterlimit: 4; fill: rgb(255,255,255); fill-rule: nonzero; opacity: 1;"  points="9.65,-1.55 10.15,10.15 9.85,10.15 -8.35,-19.85 -16.75,-19.85 -16.75,19.85 -9.65,19.85 -9.65,1.25 -10.05,-10.05 -9.75,-10.05 8.35,19.85 16.75,19.85 16.75,-19.85 9.65,-19.85 " />
</g>
		<g transform="matrix(1 0 0 1 -401.65 241.75)"  >
<path style="stroke: none; stroke-width: 1; stroke-dasharray: none; stroke-linecap: butt; stroke-dashoffset: 0; stroke-linejoin: miter; stroke-miterlimit: 4; fill: rgb(255,255,255); fill-rule: nonzero; opacity: 1;"  transform=" translate(-98.35, -503.75)" d="M 96.8 507.8 h 12.4 c -0.2 3.1 -1.3 5.6 -3.3 7.4 c -2 1.9 -4.6 2.8 -7.7 2.8 c -3.3 0 -6 -1 -8 -3 c -2 -2 -3 -4.7 -3 -7.9 v -6.2 c 0 -3.4 1 -6.2 3.2 -8.2 c 2.1 -2 4.9 -3 8.4 -3 c 5 0 8.7 2.3 9.7 6.2 h 7.4 c -0.6 -3.8 -2.5 -6.8 -5.7 -9.1 c -3.2 -2.3 -7 -3.4 -11.6 -3.4 c -5.7 0 -10.3 1.8 -13.7 5.4 c -3.4 3.6 -5.2 8.7 -5.2 15.4 c 0 6.2 1.5 11.1 4.6 14.6 c 3.1 3.5 7.3 5.3 12.8 5.3 c 5.8 0 10.7 -2.2 13.2 -6.5 h 0.4 l 0.5 6 h 5.8 V 502 H 96.8 V 507.8 z" stroke-linecap="round" />
</g>
		<g transform="matrix(1 0 0 1 -368.55 241.65)"  >
<rect style="stroke: none; stroke-width: 1; stroke-dasharray: none; stroke-linecap: butt; stroke-dashoffset: 0; stroke-linejoin: miter; stroke-miterlimit: 4; fill: rgb(255,255,255); fill-rule: nonzero; opacity: 1;"  x="-3.55" y="-19.85" rx="0" ry="0" width="7.1" height="39.7" />
</g>
		<g transform="matrix(1 0 0 1 -336.45 241.65)"  >
<polygon style="stroke: none; stroke-width: 1; stroke-dasharray: none; stroke-linecap: butt; stroke-dashoffset: 0; stroke-linejoin: miter; stroke-miterlimit: 4; fill: rgb(255,255,255); fill-rule: nonzero; opacity: 1;"  points="9.65,-1.55 10.05,10.15 9.75,10.15 -8.45,-19.85 -16.75,-19.85 -16.75,19.85 -9.75,19.85 -9.75,1.25 -10.15,-10.05 -9.75,-10.05 8.25,19.85 16.75,19.85 16.75,-19.85 9.65,-19.85 " />
</g>
		<g transform="matrix(1 0 0 1 -294.35 241.65)"  >
<polygon style="stroke: none; stroke-width: 1; stroke-dasharray: none; stroke-linecap: butt; stroke-dashoffset: 0; stroke-linejoin: miter; stroke-miterlimit: 4; fill: rgb(255,255,255); fill-rule: nonzero; opacity: 1;"  points="-13.65,19.85 13.65,19.85 13.65,13.55 -6.55,13.55 -6.55,2.25 10.95,2.25 10.95,-3.65 -6.55,-3.65 -6.55,-13.65 13.65,-13.65 13.65,-19.85 -13.65,-19.85 " />
</g>
		<g transform="matrix(1 0 0 1 -257.15 241.65)"  >
<polygon style="stroke: none; stroke-width: 1; stroke-dasharray: none; stroke-linecap: butt; stroke-dashoffset: 0; stroke-linejoin: miter; stroke-miterlimit: 4; fill: rgb(255,255,255); fill-rule: nonzero; opacity: 1;"  points="-13.65,19.85 13.65,19.85 13.65,13.55 -6.55,13.55 -6.55,2.25 10.95,2.25 10.95,-3.65 -6.55,-3.65 -6.55,-13.65 13.65,-13.65 13.65,-19.85 -13.65,-19.85 " />
</g>
		<g transform="matrix(1 0 0 1 -217.7 241.65)"  >
<path style="stroke: none; stroke-width: 1; stroke-dasharray: none; stroke-linecap: butt; stroke-dashoffset: 0; stroke-linejoin: miter; stroke-miterlimit: 4; fill: rgb(255,255,255); fill-rule: nonzero; opacity: 1;"  transform=" translate(-282.3, -503.65)" d="M 293.8 505.4 H 292 V 505 c 3.7 -1.3 6 -4.8 6 -9.5 c 0 -7.2 -4 -11.7 -11.8 -11.7 h -19.8 v 39.7 h 7.1 v -14.6 h 17.4 v 14.6 h 7.3 V 510 C 298.1 506.9 296.7 505.4 293.8 505.4 z M 290.5 498 c 0 3.1 -2.2 5.1 -6 5.1 h -11 V 490 h 11 c 3.7 0 6 1.7 6 5 V 498 z" stroke-linecap="round" />
</g>
		<g transform="matrix(1 0 0 1 -187.75 241.65)"  >
<rect style="stroke: none; stroke-width: 1; stroke-dasharray: none; stroke-linecap: butt; stroke-dashoffset: 0; stroke-linejoin: miter; stroke-miterlimit: 4; fill: rgb(255,255,255); fill-rule: nonzero; opacity: 1;"  x="-3.55" y="-19.85" rx="0" ry="0" width="7.1" height="39.7" />
</g>
		<g transform="matrix(1 0 0 1 -155.65 241.65)"  >
<polygon style="stroke: none; stroke-width: 1; stroke-dasharray: none; stroke-linecap: butt; stroke-dashoffset: 0; stroke-linejoin: miter; stroke-miterlimit: 4; fill: rgb(255,255,255); fill-rule: nonzero; opacity: 1;"  points="9.65,-1.55 10.05,10.15 9.75,10.15 -8.45,-19.85 -16.75,-19.85 -16.75,19.85 -9.75,19.85 -9.75,1.25 -10.15,-10.05 -9.75,-10.05 8.25,19.85 16.75,19.85 16.75,-19.85 9.65,-19.85 " />
</g>
		<g transform="matrix(1 0 0 1 -111.25 241.75)"  >
<path style="stroke: none; stroke-width: 1; stroke-dasharray: none; stroke-linecap: butt; stroke-dashoffset: 0; stroke-linejoin: miter; stroke-miterlimit: 4; fill: rgb(255,255,255); fill-rule: nonzero; opacity: 1;"  transform=" translate(-388.75, -503.75)" d="M 387.2 507.8 h 12.4 c -0.2 3.1 -1.3 5.6 -3.3 7.4 c -2 1.9 -4.6 2.8 -7.7 2.8 c -3.3 0 -6 -1 -8 -3 c -2 -2 -3 -4.7 -3 -7.9 v -6.2 c 0 -3.4 1 -6.2 3.2 -8.2 c 2.1 -2 4.9 -3 8.4 -3 c 5 0 8.7 2.3 9.7 6.2 h 7.4 c -0.6 -3.8 -2.5 -6.8 -5.7 -9.1 c -3.2 -2.3 -7 -3.4 -11.6 -3.4 c -5.7 0 -10.3 1.8 -13.7 5.4 c -3.4 3.6 -5.2 8.7 -5.2 15.4 c 0 6.2 1.5 11.1 4.6 14.6 c 3.1 3.5 7.3 5.3 12.8 5.3 c 5.8 0 10.7 -2.2 13.2 -6.5 h 0.4 l 0.5 6 h 5.8 V 502 h -20.2 V 507.8 z" stroke-linecap="round" />
</g>
		<g transform="matrix(1 0 0 1 -347.9 -106.55)"  >
<path style="stroke: none; stroke-width: 1; stroke-dasharray: none; stroke-linecap: butt; stroke-dashoffset: 0; stroke-linejoin: miter; stroke-miterlimit: 4; fill: rgb(255,255,255); fill-rule: nonzero; opacity: 1;"  transform=" translate(-152.1, -155.45)" d="M 91.5 283.1 H 26.9 v -52.7 v -60.1 h 156.8 c 27.7 0 50.3 -22.6 50.3 -50.3 s -22.5 -48.2 -50.3 -48.2 H 26.9 V 27.7 h 154.7 c 52.8 0 95.7 40.8 95.7 93.6 s -42.9 93.6 -95.7 93.6 H 70.3 v 26.9 h 111.3 c 67.6 0 122.6 -52.9 122.6 -120.5 c 0 -67.6 -55 -120.5 -122.6 -120.5 H 0 v 98.1 h 183.7 c 12.9 0 23.3 8.4 23.3 21.2 c 0 12.9 -10.5 23.3 -23.3 23.3 H 0 v 87 v 79.7 h 91.5 V 283.1 z" stroke-linecap="round" />
</g>
		<g transform="matrix(1 0 0 1 344.3 -107.6)"  >
<path style="stroke: none; stroke-width: 1; stroke-dasharray: none; stroke-linecap: butt; stroke-dashoffset: 0; stroke-linejoin: miter; stroke-miterlimit: 4; fill: rgb(255,255,255); fill-rule: nonzero; opacity: 1;"  transform=" translate(-844.3, -154.4)" d="M 937.3 99.1 V 72.2 H 777.7 c -10.4 0 -18.9 8.5 -18.9 18.9 v 79.3 H 1000 V 0 H 754.9 c -36.6 0 -66.3 29.8 -66.3 66.3 v 186.3 c 0 31 25.2 56.2 56.2 56.2 H 1000 v -94 H 764.7 v 26.9 h 208.4 v 40.1 H 744.8 c -16.1 0 -29.2 -13.1 -29.2 -29.2 V 66.3 c 0 -21.7 17.7 -39.4 39.4 -39.4 h 218.1 v 116.6 H 785.7 V 99.1 H 937.3 z" stroke-linecap="round" />
</g>
		<g transform="matrix(1 0 0 1 -7.5 -107.65)"  >
<path style="stroke: none; stroke-width: 1; stroke-dasharray: none; stroke-linecap: butt; stroke-dashoffset: 0; stroke-linejoin: miter; stroke-miterlimit: 4; fill: rgb(255,255,255); fill-rule: nonzero; opacity: 1;"  transform=" translate(-492.5, -154.35)" d="M 595.5 0 h -169 c -47.5 0 -86.1 38.6 -86.1 86.1 c 0 47.5 38.6 86.1 86.1 86.1 h 136.4 c 30.2 0 54.7 24.6 54.7 54.7 c 0 30.2 -24.6 54.8 -54.7 54.8 H 389.5 c -12.2 0 -22.2 -9.9 -22.2 -22.2 v -17.4 h 197.3 v -26.9 H 340.4 v 44.4 c 0 27.1 22 49.1 49.1 49.1 h 173.4 c 45 0 81.7 -36.7 81.7 -81.7 s -36.6 -81.7 -81.7 -81.7 H 426.5 c -32.6 0 -59.2 -26.5 -59.2 -59.2 c 0 -32.7 26.5 -59.2 59.2 -59.2 h 169 c 12.2 0 22.2 9.9 22.2 22.2 V 71 H 421.2 v 26.9 h 223.4 V 49.1 C 644.6 22 622.6 0 595.5 0 z" stroke-linecap="round" />
</g>
</g>
</g>
</svg>